<svg xmlns="http://www.w3.org/2000/svg" viewBox="0 0 64 64">
  <defs>
    <linearGradient id="g" x1="0" y1="0" x2="1" y2="1">
      <stop offset="0%" stop-color="#fb923c"/>
      <stop offset="70%" stop-color="#f97316"/>
    </linearGradient>
  </defs>
  <rect x="0" y="0" width="64" height="64" fill="#0f172a" rx="12" ry="12"/>
  <g transform="translate(12,10)">
    <path d="M10 10c0 18 0 26 6 30 2.5 2 6 2 8.5 0 6-4 6-12 6-30h-4c0 18 0 24-4 24s-4-6-4-24h-8z" fill="url(#g)"/>
    <path d="M22-2c4 2 6 5.4 6 9.2 0 3.1-2 5.8-6 7.2-4-1.4-6-4.1-6-7.2 0-3.8 2-7.2 6-9.2z" fill="#0b1220"/>
  </g>
</svg>
